<?xml version="1.0" encoding="UTF-8"?>
<svg viewBox="0 0 48 48" xmlns="http://www.w3.org/2000/svg" xmlns:xlink="http://www.w3.org/1999/xlink">
 <path d="m24.4796,1.99952c-2.77242,0-5.10823,1.57371-6.40625,3.8125-.94436-.47504-1.96519-.8125-3.09375-.8125-3.864,0-7,3.136-7,7s3.136,7 7,7c2.41967,0 4.43009-1.31932 5.6875-3.1875 1.1342.68962 2.38898,1.1875 3.8125,1.1875 .91312,0 1.75295-.23202 2.5625-.53125 .50994.86773 1.17912,1.57972 2,2.15625-.007.13038-.0625.24282-.0625.375 0,3.864 3.13599,7 7,7s7-3.136 7-7c0-2.36969-1.25898-4.35834-3.0625-5.625 .007-.13038.0625-.24282.0625-.375 0-3.864-3.13599-7-7-7-.6227,0-1.17519.22219-1.75.375-1.19453-2.55884-3.74134-4.375-6.75-4.375z" fill="#fff" stroke="#000"/>
 <path d="m35.611 30.294-3.1245 4.2792h3.7794s-2.7032 4.5258-7.5755 12.926c2.0962-7.9473 2.9528-10.97 2.9528-10.97h-5.1633l4.0428-6.2354h5.0883z" fill="#fff" fill-rule="evenodd" stroke="#000"/>
 <path d="m31.494 14.499c-2.2708 0-4.1099 1.5503-4.7188 3.625-0.69323-0.36383-1.4445-0.625-2.2812-0.625-2.76 0-5 2.24-5 5 0 0.57893 0.16252 1.1077 0.34375 1.625-1.3735 0.77074-2.3438 2.189-2.3438 3.875 0 2.484 2.016 4.5 4.5 4.5h19c2.484 0 4.5-2.016 4.5-4.5 0-1.686-0.97028-3.1043-2.3438-3.875 0.18124-0.51729 0.34375-1.0461 0.34375-1.625 0-2.76-2.24-5-5-5-0.83674 0-1.588 0.26117-2.2812 0.625-0.60884-2.0747-2.4479-3.625-4.7188-3.625z" fill="#fff" stroke="#000" stroke-miterlimit="2"/>
 <path d="m43.95 22.666c-2e-3 2.6846-3.2693 3.714-3.2693 3.714s2.3487-1.626 2.3368-3.705l0.93241-9e-3z" fill-rule="evenodd"/>
 <path d="m17.611 27.294-3.1245 4.2792h3.7794s-2.7032 4.5258-7.5755 12.926c2.0962-7.9473 2.9528-10.97 2.9528-10.97h-5.1633l4.0428-6.2354h5.0883z" fill="#fff" fill-rule="evenodd" stroke="#000"/>
 <path d="m16.48 10.483c-2.2708 0-4.1099 1.5503-4.7188 3.625-0.69323-0.36383-1.4445-0.625-2.2812-0.625-2.76 0-5 2.24-5 5 0 0.57893 0.16252 1.1077 0.34375 1.625-1.3735 0.77074-2.3438 2.189-2.3438 3.875 0 2.484 2.016 4.5 4.5 4.5h19c2.484 0 4.5-2.016 4.5-4.5 0-1.686-0.97028-3.1043-2.3438-3.875 0.18124-0.51729 0.34375-1.0461 0.34375-1.625 0-2.76-2.24-5-5-5-0.83674 0-1.588 0.26117-2.2812 0.625-0.60884-2.0747-2.4479-3.625-4.7188-3.625z" fill="#fff" stroke="#000" stroke-miterlimit="2"/>
 <path d="m28.936 18.65c-2e-3 2.6846-3.2693 3.714-3.2693 3.714s2.3487-1.626 2.3368-3.705l0.93241-9e-3z" fill-rule="evenodd"/>
</svg>
