<?xml version="1.0" encoding="UTF-8" standalone="no"?>
<!-- Created with Inkscape (http://www.inkscape.org/) -->

<svg
   xmlns:dc="http://purl.org/dc/elements/1.1/"
   xmlns:cc="http://creativecommons.org/ns#"
   xmlns:rdf="http://www.w3.org/1999/02/22-rdf-syntax-ns#"
   xmlns:svg="http://www.w3.org/2000/svg"
   xmlns="http://www.w3.org/2000/svg"
   xmlns:sodipodi="http://sodipodi.sourceforge.net/DTD/sodipodi-0.dtd"
   xmlns:inkscape="http://www.inkscape.org/namespaces/inkscape"
   width="32"
   height="32"
   viewBox="0 0 8.4666666 8.4666666"
   version="1.1"
   id="svg5952"
   inkscape:version="0.92.4 (5da689c313, 2019-01-14)"
   sodipodi:docname="Icon-Trauben-Würzburg-Neu.svg">
  <defs
     id="defs5946" />
  <sodipodi:namedview
     id="base"
     pagecolor="#ffffff"
     bordercolor="#666666"
     borderopacity="1.0"
     inkscape:pageopacity="0.0"
     inkscape:pageshadow="2"
     inkscape:zoom="11.2"
     inkscape:cx="18.469858"
     inkscape:cy="25.020212"
     inkscape:document-units="mm"
     inkscape:current-layer="g817"
     showgrid="false"
     inkscape:window-width="1920"
     inkscape:window-height="986"
     inkscape:window-x="-11"
     inkscape:window-y="-11"
     inkscape:window-maximized="1"
     units="px" />
  <metadata
     id="metadata5949">
    <rdf:RDF>
      <cc:Work
         rdf:about="">
        <dc:format>image/svg+xml</dc:format>
        <dc:type
           rdf:resource="http://purl.org/dc/dcmitype/StillImage" />
        <dc:title></dc:title>
        <cc:license
           rdf:resource="http://creativecommons.org/licenses/by/4.0/" />
      </cc:Work>
      <cc:License
         rdf:about="http://creativecommons.org/licenses/by/4.0/">
        <cc:permits
           rdf:resource="http://creativecommons.org/ns#Reproduction" />
        <cc:permits
           rdf:resource="http://creativecommons.org/ns#Distribution" />
        <cc:requires
           rdf:resource="http://creativecommons.org/ns#Notice" />
        <cc:requires
           rdf:resource="http://creativecommons.org/ns#Attribution" />
        <cc:permits
           rdf:resource="http://creativecommons.org/ns#DerivativeWorks" />
      </cc:License>
    </rdf:RDF>
  </metadata>
  <g
     inkscape:label="Ebene 1"
     inkscape:groupmode="layer"
     id="layer1"
     transform="translate(0,-288.53333)">
    <g
       id="g817">
      <path
         style="color:#000000;font-style:normal;font-variant:normal;font-weight:normal;font-stretch:normal;font-size:medium;line-height:normal;font-family:sans-serif;font-variant-ligatures:normal;font-variant-position:normal;font-variant-caps:normal;font-variant-numeric:normal;font-variant-alternates:normal;font-feature-settings:normal;text-indent:0;text-align:start;text-decoration:none;text-decoration-line:none;text-decoration-style:solid;text-decoration-color:#000000;letter-spacing:normal;word-spacing:normal;text-transform:none;writing-mode:lr-tb;direction:ltr;text-orientation:mixed;dominant-baseline:auto;baseline-shift:baseline;text-anchor:start;white-space:normal;shape-padding:0;clip-rule:nonzero;display:inline;overflow:visible;visibility:visible;opacity:1;isolation:auto;mix-blend-mode:normal;color-interpolation:sRGB;color-interpolation-filters:linearRGB;solid-color:#000000;solid-opacity:1;vector-effect:none;fill:#000000;fill-opacity:1;fill-rule:nonzero;stroke:none;stroke-width:1;stroke-linecap:butt;stroke-linejoin:miter;stroke-miterlimit:4;stroke-dasharray:none;stroke-dashoffset:0;stroke-opacity:1;color-rendering:auto;image-rendering:auto;shape-rendering:auto;text-rendering:auto;enable-background:accumulate"
         d="m 4.6554808,289.10351 -5.533e-4,0.008 c -0.1073578,0.007 -0.2121731,0.0399 -0.2945087,0.11039 -0.092971,0.0796 -0.1543836,0.18929 -0.195852,0.3161 -0.051652,0.15797 -0.072132,0.35736 -0.076879,0.58775 -0.36339,-0.40179 -0.8260792,-0.56716 -1.346982,-0.50135 l -0.1145844,0.0144 0.01684,0.11453 c 0.046972,0.31858 0.1342639,0.63298 0.3917027,0.82715 0.1522316,0.11479 0.3645353,0.16911 0.6294713,0.17187 -0.1082912,0.12827 -0.183771,0.2861 -0.183771,0.46749 0,0.40773 0.3299093,0.73763 0.7376451,0.73763 0.4077384,0 0.738013,-0.32987 0.738013,-0.73763 0,-0.18864 -0.081452,-0.35166 -0.1976827,-0.48195 0.1724419,-0.003 0.316959,-0.0355 0.4215395,-0.1116 0.1811457,-0.132 0.2410911,-0.34466 0.2723611,-0.54948 v -1.9e-4 l 0.01776,-0.11507 -0.116051,-0.0143 c -0.3475436,-0.0424 -0.6607519,0.0685 -0.9062256,0.32691 -0.00227,-0.27653 0.01692,-0.49696 0.058572,-0.62435 0.027773,-0.0849 0.061572,-0.13253 0.087865,-0.15503 0.028946,-0.0248 0.045812,-0.0319 0.097918,-0.0308 h 1.88e-4 c 0.055919,0.001 0.1041846,-0.0205 0.1356319,-0.0544 0.031453,-0.0339 0.046799,-0.0777 0.047772,-0.12133 9.786e-4,-0.0436 -0.0124,-0.088 -0.042279,-0.1232 -0.029893,-0.0352 -0.077158,-0.0591 -0.133064,-0.0604 H 4.700141 Z m 0.042652,0.0948 c 0.032493,7.5e-4 0.050692,0.012 0.063879,0.0272 0.0132,0.0156 0.020466,0.0379 0.019946,0.0605 -5.16e-4,0.0228 -0.0088,0.0448 -0.022693,0.0597 -0.01388,0.0149 -0.032666,0.0251 -0.065159,0.0243 -0.066439,-10e-4 -0.1190243,0.0175 -0.1608901,0.0533 -0.044559,0.0381 -0.084438,0.10106 -0.1158643,0.19714 -0.054466,0.16657 -0.077398,0.42376 -0.065345,0.7704 l 0.00453,0.12946 0.079252,-0.10226 c 0.2371112,-0.30581 0.5460889,-0.42201 0.9067736,-0.37798 l 0.020133,0.003 -0.00307,0.0197 c -0.030013,0.19673 -0.084585,0.37866 -0.2348379,0.48816 -0.1017313,0.0741 -0.2458791,0.11146 -0.4517402,0.10013 l -0.1369132,-0.008 0.1035979,0.0899 c 0.1362892,0.11813 0.2225754,0.29159 0.2225754,0.48688 0,0.35737 -0.2868915,0.64393 -0.6442962,0.64393 -0.3574035,0 -0.643931,-0.28654 -0.643931,-0.64393 0,-0.18741 0.079478,-0.35458 0.2062852,-0.47224 l 0.093171,-0.0864 -0.1270241,0.005 c -0.2978193,0.012 -0.5060804,-0.0483 -0.6554627,-0.16089 -0.2265487,-0.17088 -0.3094617,-0.4553 -0.3552781,-0.76601 l -0.00293,-0.02 0.019773,-0.003 c 0.5308546,-0.0671 0.9848507,0.0999 1.3403929,0.54454 l 0.084385,0.10546 -9.186e-4,-0.13509 c -0.00173,-0.27678 0.022186,-0.4966 0.077238,-0.66497 0.037933,-0.116 0.091532,-0.20884 0.1676633,-0.27401 0.075012,-0.0643 0.1746031,-0.0969 0.2767544,-0.0947 z m -1.7238597,0.55113 -0.035879,9.3e-4 h -1.88e-4 c -0.033893,8.5e-4 -0.068092,0.003 -0.1026779,0.005 l -0.051066,0.004 0.0088,0.0507 c 0.047799,0.27131 0.1265307,0.51633 0.3214161,0.66333 0.1983267,0.14958 0.5290306,0.18785 1.0334364,0.0879 l 0.039906,-0.008 -0.00213,-0.0407 c -5.334e-4,-0.009 -0.00117,-0.0193 -0.0016,-0.0289 l -5.533e-4,-0.012 -0.0068,-0.0107 c -0.3133976,-0.4884 -0.7191041,-0.70778 -1.2012823,-0.70781 z m -0.033679,0.0947 c 0.4567454,-0.0107 0.8242167,0.18046 1.1278852,0.63093 -0.4488669,0.0789 -0.7419277,0.0416 -0.8972552,-0.0756 -0.1522396,-0.1148 -0.2242808,-0.31541 -0.2714465,-0.55315 0.013586,-6.6e-4 0.0274,-10e-4 0.040812,-0.003 z m 2.2134885,0.22989 c -0.034959,-6.5e-4 -0.070292,2.8e-4 -0.1052512,0.005 -0.2450097,0.0349 -0.4494162,0.17953 -0.6173902,0.42393 l -0.041373,0.0603 0.072119,0.012 c 0.3056525,0.0531 0.5137922,0.0348 0.639355,-0.0568 0.1183176,-0.0863 0.1675553,-0.22909 0.1993293,-0.3842 l 0.010933,-0.0531 -0.054185,-0.003 c -0.033866,-0.001 -0.068679,-0.004 -0.1035979,-0.005 z m -0.00187,0.0937 c 0.012933,2.8e-4 0.027026,10e-4 0.040452,10e-4 -0.029906,0.11933 -0.070372,0.21853 -0.1462477,0.27383 -0.076812,0.056 -0.2426778,0.0737 -0.4742531,0.0463 0.1429411,-0.17806 0.3000979,-0.29066 0.4899941,-0.31775 v 1.8e-4 c 0.027719,-0.004 0.057999,-0.005 0.090051,-0.004 z m -0.1056112,0.66772 v 0.003 c -0.00373,9e-5 -0.00733,-1.9e-4 -0.010933,0 h -1.88e-4 -1.88e-4 c -0.014493,7.4e-4 -0.027946,0.003 -0.040452,0.004 l -0.062785,0.007 0.024893,0.0583 c 0.041079,0.0963 0.063692,0.20205 0.063692,0.31335 0,0.33844 -0.2109544,0.62751 -0.5077497,0.74533 l -0.059119,0.0235 0.039906,0.0495 c 0.211301,0.26274 0.5782469,0.35183 0.8901179,0.20373 0.3410185,-0.16195 0.5048165,-0.55478 0.3798057,-0.911 -0.1025446,-0.29219 -0.3717165,-0.48242 -0.6682745,-0.49328 h -1.88e-4 z m -1.710496,7.6e-4 v 0.008 c -0.2968407,0.0133 -0.5654966,0.20028 -0.6655292,0.49292 -0.1206109,0.35286 0.040812,0.73968 0.376327,0.90239 0.3120551,0.15133 0.6827689,0.0641 0.8959752,-0.20099 l 0.039719,-0.0495 -0.058932,-0.0235 c -0.296874,-0.11773 -0.5079324,-0.40695 -0.5079324,-0.74552 0,-0.11133 0.022746,-0.21729 0.063879,-0.31372 l 0.02508,-0.0585 -0.063332,-0.007 c -0.018493,-0.001 -0.037626,-0.004 -0.057479,-0.004 z m 1.7557071,0.0948 c 0.2587054,0.009 0.4935433,0.17481 0.5833441,0.43068 0.1094645,0.31192 -0.033066,0.65351 -0.3316653,0.79531 -0.2551788,0.12119 -0.5464142,0.0553 -0.7347184,-0.14039 0.2966873,-0.14622 0.5055538,-0.44487 0.5055538,-0.79695 0,-0.10214 -0.027013,-0.19675 -0.058759,-0.28846 0.012133,-1.9e-4 0.024106,-6.7e-4 0.036239,-1.9e-4 z m -1.7110467,1.9e-4 c -0.031773,0.0917 -0.058759,0.18638 -0.058759,0.28864 0,0.35212 0.2088771,0.65076 0.5055524,0.79696 -0.1900241,0.19748 -0.4843915,0.26189 -0.7398423,0.13801 -0.2937994,-0.14248 -0.4339779,-0.47884 -0.3283707,-0.7878 0.092265,-0.26991 0.3460463,-0.44132 0.6214154,-0.43581 z m 2.5202609,0.75539 -0.00747,1.9e-4 h -0.031306 l -0.0072,0.0381 c -0.046812,0.24402 -0.2050945,0.46171 -0.443503,0.57492 -0.062745,0.0299 -0.1277574,0.0501 -0.1938374,0.0628 l -0.037159,0.007 -9.187e-4,0.0379 c -0.00653,0.27788 0.1440438,0.5393 0.39518,0.67065 0.2796677,0.14626 0.6209994,0.0987 0.8498494,-0.11867 0.2288434,-0.21732 0.2941941,-0.55585 0.1625381,-0.8427 -0.1234242,-0.26891 -0.3940094,-0.43654 -0.6862115,-0.43015 z m -3.3256312,0.0163 -0.047959,0.0141 c -0.2448617,0.0724 -0.4359364,0.26702 -0.5028084,0.51599 -0.071412,0.26588 0.011066,0.54924 0.213973,0.73527 0.1659699,0.15214 0.3896134,0.21842 0.6071397,0.18597 l 0.041732,-0.007 v 0.0575 c -0.1001313,0.0192 -0.2019812,0.0259 -0.3003672,0.007 l -0.035506,-0.007 -0.01556,0.0325 c -0.130744,0.27431 -0.079958,0.60325 0.1323306,0.82605 0.2257194,0.23687 0.5801843,0.29705 0.8712637,0.14753 0.2679119,-0.13763 0.4222594,-0.42221 0.3975599,-0.71733 l -0.00507,-0.0623 -0.058385,0.0223 c -0.030026,0.012 -0.059865,0.0217 -0.090425,0.0295 -0.3009045,0.0761 -0.6166261,-0.0288 -0.8128755,-0.26412 l -0.062785,-0.0752 0.004,-5.8e-4 -0.031479,-0.0588 c -0.1349146,-0.25108 -0.1270908,-0.55706 0.024706,-0.80189 l 0.022693,-0.0368 -0.034773,-0.0256 c -0.1574261,-0.116 -0.2644173,-0.28429 -0.3064071,-0.46967 z m 3.3585785,0.0812 c 0.2428871,0.007 0.4647053,0.14618 0.5681525,0.37158 0.115131,0.25082 0.058279,0.54556 -0.1418558,0.73562 -0.2001279,0.19007 -0.4974685,0.23169 -0.7420383,0.10373 -0.209825,-0.10973 -0.3351345,-0.32351 -0.341185,-0.55405 0.058932,-0.014 0.1178509,-0.0295 0.1748018,-0.0565 0.2519455,-0.1196 0.4202661,-0.34558 0.4821248,-0.60038 z m -3.41532,0.0439 c 0.051066,0.17089 0.1493316,0.32454 0.2915807,0.43966 -0.1378545,0.24448 -0.149225,0.53468 -0.040266,0.78908 -0.1694513,0.008 -0.3389105,-0.0392 -0.4680305,-0.1576 -0.1773405,-0.16255 -0.2492897,-0.40956 -0.1868816,-0.6419 0.054732,-0.20377 0.2092078,-0.35757 0.4035998,-0.42924 z m 1.8708394,0.17572 -0.029653,0.005 c -0.046106,0.008 -0.093545,0.012 -0.1418544,0.012 -0.023693,0 -0.046999,-0.001 -0.070105,-0.003 l -0.1449677,-0.0136 0.1098244,0.0956 c 0.1967147,0.17108 0.3017833,0.43097 0.2708985,0.69775 -0.02176,0.18794 -0.1086378,0.35713 -0.2386831,0.4834 l -0.045946,0.0447 0.056559,0.0301 c 0.1888615,0.10093 0.4145609,0.11613 0.6177568,0.0363 0.2328633,-0.0916 0.4021305,-0.29474 0.4521055,-0.53851 l 0.0036,-0.0173 -0.0088,-0.0152 c -0.068345,-0.11987 -0.1057578,-0.2568 -0.1056112,-0.39811 v -0.0468 h -0.046852 c -0.2580934,-1.9e-4 -0.5081643,-0.12507 -0.6611359,-0.34796 z m -0.4012212,0.0824 -0.028186,0.0309 c -0.2351126,0.25641 -0.6162955,0.33635 -0.9389877,0.18121 l -0.037706,-0.0183 -0.022333,0.0357 c -0.1563769,0.25027 -0.1495423,0.57053 0.020866,0.81378 0.1758258,0.251 0.4884981,0.36733 0.7856027,0.29214 0.297102,-0.0752 0.5166202,-0.32634 0.5518622,-0.63076 0.030853,-0.2665 -0.085238,-0.52504 -0.2972553,-0.67999 z m 0.3607686,0.0176 c 0.1632981,0.22171 0.4136557,0.34935 0.6774263,0.36186 0.0064,0.13409 0.040933,0.26322 0.1028646,0.37926 -0.046279,0.20838 -0.1903815,0.38219 -0.3904214,0.46089 -0.1592981,0.0627 -0.3315906,0.0491 -0.4850529,-0.0163 0.1167843,-0.13368 0.201608,-0.29602 0.2229409,-0.4803 0.030026,-0.25935 -0.060279,-0.50887 -0.2278834,-0.69628 0.033893,-0.001 0.067332,-0.004 0.1001179,-0.009 z m -0.3611353,0.10906 c 0.1676753,0.13688 0.2639347,0.34613 0.2383165,0.56742 -0.030813,0.26615 -0.2220448,0.48484 -0.4817582,0.55057 -0.2597174,0.0657 -0.5319346,-0.0357 -0.6856621,-0.25515 -0.1422745,-0.20309 -0.150229,-0.46534 -0.031853,-0.67925 0.3331039,0.13807 0.7080656,0.0611 0.9609525,-0.18359 z m 1.2928031,0.70543 -0.026546,0.0704 c -0.079025,0.21009 -0.2436991,0.38026 -0.4570481,0.46419 -0.067545,0.0265 -0.1375758,0.0433 -0.2081144,0.0509 l -0.041546,0.004 -3.654e-4,0.0417 c -0.0024,0.29346 0.1704472,0.56304 0.4429537,0.682 0.2917368,0.12733 0.6318659,0.0532 0.8443576,-0.18377 0.1959827,-0.21858 0.2419111,-0.53001 0.1237308,-0.79384 l -0.012266,-0.0279 h -0.030386 c -0.1263708,-9e-5 -0.2534135,-0.0297 -0.3704698,-0.0909 -0.081172,-0.0424 -0.1523716,-0.0979 -0.2128744,-0.16236 z m 0.028919,0.15412 c 0.058146,0.0548 0.1186376,0.10786 0.1920081,0.14625 0.1194776,0.0625 0.248631,0.0919 0.3776084,0.0972 0.090878,0.22541 0.050999,0.48485 -0.1147577,0.66974 -0.1858482,0.20729 -0.4817809,0.27171 -0.7369144,0.16034 -0.2271274,-0.0992 -0.3702805,-0.31815 -0.3818189,-0.56028 0.062599,-0.0107 0.1251975,-0.0219 0.1856016,-0.0456 0.2189022,-0.0861 0.3831535,-0.25898 0.4782796,-0.46767 z m -2.3932314,0.22404 c 0.2200675,0.24963 0.5619579,0.36156 0.8897513,0.27858 0.011866,-0.003 0.022426,-0.008 0.033866,-0.0107 -0.00307,0.23473 -0.1279707,0.45411 -0.3431983,0.56468 -0.2545589,0.1308 -0.5630806,0.0784 -0.760526,-0.12893 -0.1795456,-0.18842 -0.2232954,-0.46175 -0.1229975,-0.69628 0.100198,0.014 0.2022413,0.0135 0.3031112,-0.007 z m 1.1826133,0.0441 -0.075598,0.0384 c -0.010933,0.005 -0.0124,0.008 -0.0072,0.004 l -0.02672,0.0163 0.00493,0.0309 c 0.053732,0.34101 -0.1166777,0.68011 -0.4253821,0.83868 -0.00827,0.004 -0.018546,0.008 -0.030573,0.0141 l -0.036973,0.0172 0.011867,0.0389 c 0.094225,0.30776 0.3798016,0.52339 0.7092749,0.52129 0.3344772,-0.003 0.6211354,-0.22795 0.706895,-0.54436 l 0.00973,-0.036 -0.032759,-0.0176 c -0.261504,-0.1399 -0.4245994,-0.41382 -0.4235527,-0.71001 l 1.88e-4,-0.0433 -0.043386,-0.004 c -0.1213442,-0.009 -0.2389818,-0.0497 -0.345577,-0.11307 z m -0.012133,0.1521 c 0.096958,0.0513 0.2002,0.086 0.3076885,0.0992 0.0124,0.30041 0.1741404,0.57296 0.4319712,0.72794 -0.084252,0.2607 -0.3224575,0.44567 -0.6045771,0.44753 -0.2749264,0.001 -0.5090563,-0.17163 -0.6020144,-0.42062 0.3156016,-0.16673 0.4913447,-0.50372 0.4669318,-0.85406 z m 0.8974392,0.80885 v 0.0544 c -0.098105,0.32314 -0.3906068,0.55475 -0.7343518,0.56833 l -0.057479,0.003 0.013733,0.0559 c 0.067239,0.27196 0.2839009,0.48555 0.5630273,0.54453 0.308139,0.0651 0.6234673,-0.0724 0.78542,-0.34246 0.1563649,-0.26081 0.1359759,-0.58908 -0.047959,-0.82843 l -0.018306,-0.0239 -0.029106,0.007 c -0.1351146,0.03 -0.2778477,0.0248 -0.4142169,-0.018 z m -1.5283744,0.0173 -0.058212,0.0145 c -0.092825,0.0232 -0.1879482,0.0297 -0.2813317,0.0196 l -0.01464,0.0497 -0.00307,-0.009 c -0.1624287,0.32726 -0.061012,0.72355 0.2385005,0.93276 0.2753264,0.19232 0.6411377,0.17257 0.8937779,-0.0379 l 0.031293,-0.0261 -0.0216,-0.0347 c -0.051452,-0.0828 -0.088291,-0.1753 -0.1068911,-0.2742 l -0.006,-0.0324 -0.032759,-0.005 c -0.298198,-0.0464 -0.546013,-0.25849 -0.6389884,-0.54619 z m 1.6017729,0.0983 c 0.1278641,0.0337 0.2588414,0.0389 0.3858455,0.0161 0.1476503,0.20732 0.1633487,0.48171 0.030746,0.70288 -0.1416091,0.23618 -0.4162129,0.35585 -0.6856634,0.2989 -0.2273074,-0.048 -0.4020158,-0.21518 -0.4729717,-0.42959 0.3426383,-0.0384 0.6290125,-0.2666 0.7420396,-0.5883 z m -1.677002,0.009 c 0.1079045,0.29652 0.362702,0.51438 0.672485,0.57291 0.01872,0.0827 0.050586,0.15973 0.090425,0.23209 -0.2192808,0.16487 -0.5209414,0.17901 -0.752838,0.0171 -0.2604361,-0.18191 -0.347901,-0.5228 -0.2097624,-0.80811 0.066719,10e-4 0.1334733,-4.7e-4 0.1996946,-0.0139 z m 0.9620525,0.85277 -0.076332,0.0624 c -0.1775591,0.14493 -0.4055838,0.2045 -0.6250767,0.17206 l -0.041373,-0.007 -0.0108,0.0404 c -0.076052,0.28582 0.025546,0.5907 0.2610133,0.77297 0.2434458,0.18843 0.5781923,0.2057 0.8399657,0.0437 0.2470763,-0.15287 0.3798136,-0.43511 0.3435637,-0.72025 l -0.00573,-0.0443 -0.044479,0.004 c -0.075065,0.005 -0.1514729,0.001 -0.2275167,-0.0144 -0.1623393,-0.0343 -0.3039938,-0.1184 -0.4133009,-0.23301 z m -0.052719,0.15338 c 0.1202643,0.12093 0.2719239,0.21147 0.4466137,0.2484 h 1.879e-4 c 0.068079,0.0143 0.1359506,0.0144 0.2033559,0.0133 0.015973,0.2359 -0.094438,0.46457 -0.2994512,0.5914 -0.2288901,0.14161 -0.5204415,0.12653 -0.7332532,-0.0383 -0.197216,-0.15265 -0.2827369,-0.4029 -0.2313606,-0.64339 0.2166449,0.02 0.4342605,-0.0376 0.6139115,-0.17096 z"
         id="path2239-2-9-7-8-3-0-6-8-9-1-5-9-6-2-1"
         inkscape:connector-curvature="0" />
    </g>
  </g>
</svg>
